# xmcd CD database file
#
# Track frame offsets:
#	150
#	23995
#	41181
#	60768
#	75621
#	96686
#	115694
#	133875
#	152796
#	173394
#	192180
#	204540
#
# Disc length: 3080 seconds
#
# Revision: 0
# Processed by: cddbd v1.5PL3 Copyright (c) Steve Scherf et al.
# Submitted via: CDex 1.50beta8a
#
DISCID=9c0c060c
DTITLE=ZELDA - GOLDEN☆BEST - ZELDA-time spiral Disk2
DYEAR=2003
DGENRE=Rock
TTITLE0=黄金の時間
TTITLE1=彼の人/BEAUTIFUL RAIN
TTITLE2=DEAR NATURAL
TTITLE3=自転車輪の見た夢
TTITLE4=湖のステップ/STEP ON THE LAKE
TTITLE5=小人の月光浴
TTITLE6=時折の色彩
TTITLE7=FOOLISH GO-ER
TTITLE8=スローターハウス
TTITLE9=と．ら．わ．れ
TTITLE10=SONATE815
TTITLE11=ASHU-LAH
EXTD=YEAR: 2003
EXTT0=
EXTT1=
EXTT2=
EXTT3=
EXTT4=
EXTT5=
EXTT6=
EXTT7=
EXTT8=
EXTT9=
EXTT10=
EXTT11=
PLAYORDER=
